<?xml version="1.0" encoding="UTF-8" standalone="no"?>
<svg xmlns="http://www.w3.org/2000/svg" width="3045" height="3179" viewBox="0 0 3045 3179">
  <g fill="#000000" fill-rule="evenodd" stroke="none">
    <path d="M 2136 1970 L 2135 1971 L 2117 1971 L 2116 1972 L 2105 1972 L 2104 1973 L 2096 1973 L 2095 1974 L 2089 1974 L 2088 1975 L 2082 1975 L 2081 1976 L 2076 1976 L 2075 1977 L 2070 1977 L 2069 1978 L 2065 1978 L 2064 1979 L 2061 1979 L 2060 1980 L 2056 1980 L 2055 1981 L 2052 1981 L 2051 1982 L 2048 1982 L 2047 1983 L 2044 1983 L 2043 1984 L 2041 1984 L 2040 1985 L 2037 1985 L 2036 1986 L 2034 1986 L 2033 1987 L 2030 1987 L 2029 1988 L 2027 1988 L 2026 1989 L 2024 1989 L 2023 1990 L 2021 1990 L 2020 1991 L 2019 1991 L 2018 1992 L 2016 1992 L 2015 1993 L 2013 1993 L 2012 1994 L 2011 1994 L 2010 1995 L 2008 1995 L 2007 1996 L 2006 1996 L 2005 1997 L 2003 1997 L 2002 1998 L 2001 1998 L 2000 1999 L 1998 1999 L 1997 2000 L 1996 2000 L 1995 2001 L 1994 2001 L 1993 2002 L 1992 2002 L 1991 2003 L 1989 2003 L 1988 2004 L 1987 2004 L 1986 2005 L 1985 2005 L 1984 2006 L 1983 2006 L 1982 2007 L 1981 2007 L 1980 2008 L 1979 2008 L 1978 2009 L 1977 2009 L 1976 2010 L 1975 2010 L 1974 2011 L 1973 2011 L 1971 2013 L 1970 2013 L 1969 2014 L 1968 2014 L 1967 2015 L 1966 2015 L 1965 2016 L 1964 2016 L 1962 2018 L 1961 2018 L 1960 2019 L 1959 2019 L 1957 2021 L 1956 2021 L 1955 2022 L 1954 2022 L 1952 2024 L 1951 2024 L 1949 2026 L 1948 2026 L 1946 2028 L 1945 2028 L 1943 2030 L 1942 2030 L 1940 2032 L 1939 2032 L 1937 2034 L 1936 2034 L 1933 2037 L 1932 2037 L 1929 2040 L 1928 2040 L 1924 2044 L 1923 2044 L 1918 2049 L 1917 2049 L 1910 2056 L 1909 2056 L 1890 2075 L 1890 2076 L 1883 2083 L 1883 2084 L 1878 2089 L 1878 2090 L 1875 2093 L 1875 2094 L 1872 2097 L 1872 2098 L 1869 2101 L 1869 2102 L 1866 2105 L 1866 2106 L 1864 2108 L 1864 2109 L 1862 2111 L 1862 2112 L 1860 2114 L 1860 2115 L 1859 2116 L 1859 2117 L 1857 2119 L 1857 2120 L 1855 2122 L 1855 2123 L 1854 2124 L 1854 2125 L 1852 2127 L 1852 2128 L 1851 2129 L 1851 2130 L 1850 2131 L 1850 2132 L 1849 2133 L 1849 2134 L 1847 2136 L 1847 2137 L 1846 2138 L 1846 2139 L 1845 2140 L 1845 2141 L 1844 2142 L 1844 2143 L 1843 2144 L 1843 2145 L 1842 2146 L 1842 2147 L 1841 2148 L 1841 2149 L 1840 2150 L 1840 2151 L 1839 2152 L 1839 2153 L 1838 2154 L 1838 2155 L 1837 2156 L 1837 2158 L 1836 2159 L 1836 2160 L 1835 2161 L 1835 2162 L 1834 2163 L 1834 2165 L 1833 2166 L 1833 2167 L 1832 2168 L 1832 2169 L 1831 2170 L 1831 2172 L 1830 2173 L 1830 2174 L 1829 2175 L 1829 2177 L 1828 2178 L 1828 2180 L 1827 2181 L 1827 2182 L 1826 2183 L 1826 2185 L 1825 2186 L 1825 2188 L 1824 2189 L 1824 2191 L 1823 2192 L 1823 2194 L 1822 2195 L 1822 2197 L 1821 2198 L 1821 2200 L 1820 2201 L 1820 2204 L 1819 2205 L 1819 2207 L 1818 2208 L 1818 2211 L 1817 2212 L 1817 2215 L 1816 2216 L 1816 2219 L 1815 2220 L 1815 2223 L 1814 2224 L 1814 2227 L 1813 2228 L 1813 2232 L 1812 2233 L 1812 2237 L 1811 2238 L 1811 2242 L 1810 2243 L 1810 2247 L 1809 2248 L 1809 2254 L 1808 2255 L 1808 2261 L 1807 2262 L 1807 2268 L 1806 2269 L 1806 2278 L 1805 2279 L 1805 2290 L 1804 2291 L 1804 2310 L 1803 2311 L 1803 2341 L 1804 2342 L 1804 2361 L 1805 2362 L 1805 2373 L 1806 2374 L 1806 2382 L 1807 2383 L 1807 2390 L 1808 2391 L 1808 2397 L 1809 2398 L 1809 2403 L 1810 2404 L 1810 2409 L 1811 2410 L 1811 2414 L 1812 2415 L 1812 2419 L 1813 2420 L 1813 2423 L 1814 2424 L 1814 2428 L 1815 2429 L 1815 2432 L 1816 2433 L 1816 2436 L 1817 2437 L 1817 2439 L 1818 2440 L 1818 2443 L 1819 2444 L 1819 2446 L 1820 2447 L 1820 2450 L 1821 2451 L 1821 2453 L 1822 2454 L 1822 2456 L 1823 2457 L 1823 2459 L 1824 2460 L 1824 2462 L 1825 2463 L 1825 2465 L 1826 2466 L 1826 2468 L 1827 2469 L 1827 2470 L 1828 2471 L 1828 2473 L 1829 2474 L 1829 2476 L 1830 2477 L 1830 2478 L 1831 2479 L 1831 2481 L 1832 2482 L 1832 2483 L 1833 2484 L 1833 2485 L 1834 2486 L 1834 2488 L 1835 2489 L 1835 2490 L 1836 2491 L 1836 2492 L 1837 2493 L 1837 2494 L 1838 2495 L 1838 2496 L 1839 2497 L 1839 2499 L 1840 2500 L 1840 2501 L 1841 2502 L 1841 2503 L 1842 2504 L 1842 2505 L 1843 2506 L 1843 2507 L 1844 2508 L 1844 2509 L 1846 2511 L 1846 2512 L 1847 2513 L 1847 2514 L 1848 2515 L 1848 2516 L 1849 2517 L 1849 2518 L 1850 2519 L 1850 2520 L 1852 2522 L 1852 2523 L 1853 2524 L 1853 2525 L 1855 2527 L 1855 2528 L 1856 2529 L 1856 2530 L 1858 2532 L 1858 2533 L 1860 2535 L 1860 2536 L 1861 2537 L 1861 2538 L 1863 2540 L 1863 2541 L 1866 2544 L 1866 2545 L 1868 2547 L 1868 2548 L 1871 2551 L 1871 2552 L 1874 2555 L 1874 2556 L 1877 2559 L 1877 2560 L 1881 2564 L 1881 2565 L 1887 2571 L 1887 2572 L 1912 2597 L 1913 2597 L 1919 2603 L 1920 2603 L 1924 2607 L 1925 2607 L 1929 2611 L 1930 2611 L 1933 2614 L 1934 2614 L 1936 2616 L 1937 2616 L 1940 2619 L 1941 2619 L 1943 2621 L 1944 2621 L 1946 2623 L 1947 2623 L 1949 2625 L 1950 2625 L 1951 2626 L 1952 2626 L 1954 2628 L 1955 2628 L 1957 2630 L 1958 2630 L 1959 2631 L 1960 2631 L 1961 2632 L 1962 2632 L 1964 2634 L 1965 2634 L 1966 2635 L 1967 2635 L 1968 2636 L 1969 2636 L 1970 2637 L 1971 2637 L 1972 2638 L 1973 2638 L 1975 2640 L 1976 2640 L 1977 2641 L 1978 2641 L 1979 2642 L 1980 2642 L 1981 2643 L 1982 2643 L 1983 2644 L 1985 2644 L 1986 2645 L 1987 2645 L 1988 2646 L 1989 2646 L 1990 2647 L 1991 2647 L 1992 2648 L 1993 2648 L 1994 2649 L 1996 2649 L 1997 2650 L 1998 2650 L 1999 2651 L 2000 2651 L 2001 2652 L 2003 2652 L 2004 2653 L 2005 2653 L 2006 2654 L 2008 2654 L 2009 2655 L 2011 2655 L 2012 2656 L 2013 2656 L 2014 2657 L 2016 2657 L 2017 2658 L 2019 2658 L 2020 2659 L 2022 2659 L 2023 2660 L 2025 2660 L 2026 2661 L 2028 2661 L 2029 2662 L 2031 2662 L 2032 2663 L 2035 2663 L 2036 2664 L 2038 2664 L 2039 2665 L 2042 2665 L 2043 2666 L 2046 2666 L 2047 2667 L 2050 2667 L 2051 2668 L 2054 2668 L 2055 2669 L 2059 2669 L 2060 2670 L 2064 2670 L 2065 2671 L 2069 2671 L 2070 2672 L 2074 2672 L 2075 2673 L 2080 2673 L 2081 2674 L 2087 2674 L 2088 2675 L 2095 2675 L 2096 2676 L 2104 2676 L 2105 2677 L 2115 2677 L 2116 2678 L 2135 2678 L 2136 2679 L 2165 2679 L 2166 2678 L 2185 2678 L 2186 2677 L 2197 2677 L 2198 2676 L 2206 2676 L 2207 2675 L 2214 2675 L 2215 2674 L 2221 2674 L 2222 2673 L 2227 2673 L 2228 2672 L 2232 2672 L 2233 2671 L 2237 2671 L 2238 2670 L 2242 2670 L 2243 2669 L 2247 2669 L 2248 2668 L 2251 2668 L 2252 2667 L 2255 2667 L 2256 2666 L 2259 2666 L 2260 2665 L 2263 2665 L 2264 2664 L 2266 2664 L 2267 2663 L 2270 2663 L 2271 2662 L 2273 2662 L 2274 2661 L 2276 2661 L 2277 2660 L 2279 2660 L 2280 2659 L 2282 2659 L 2283 2658 L 2285 2658 L 2286 2657 L 2288 2657 L 2289 2656 L 2291 2656 L 2292 2655 L 2293 2655 L 2294 2654 L 2296 2654 L 2297 2653 L 2298 2653 L 2299 2652 L 2301 2652 L 2302 2651 L 2303 2651 L 2304 2650 L 2306 2650 L 2307 2649 L 2308 2649 L 2309 2648 L 2310 2648 L 2311 2647 L 2313 2647 L 2314 2646 L 2315 2646 L 2316 2645 L 2317 2645 L 2318 2644 L 2319 2644 L 2320 2643 L 2321 2643 L 2322 2642 L 2323 2642 L 2324 2641 L 2325 2641 L 2326 2640 L 2327 2640 L 2328 2639 L 2329 2639 L 2330 2638 L 2331 2638 L 2332 2637 L 2333 2637 L 2334 2636 L 2335 2636 L 2336 2635 L 2337 2635 L 2339 2633 L 2340 2633 L 2341 2632 L 2342 2632 L 2343 2631 L 2344 2631 L 2346 2629 L 2347 2629 L 2348 2628 L 2349 2628 L 2351 2626 L 2352 2626 L 2354 2624 L 2355 2624 L 2357 2622 L 2358 2622 L 2360 2620 L 2361 2620 L 2363 2618 L 2364 2618 L 2366 2616 L 2367 2616 L 2370 2613 L 2371 2613 L 2374 2610 L 2375 2610 L 2378 2607 L 2379 2607 L 2383 2603 L 2384 2603 L 2390 2597 L 2391 2597 L 2415 2573 L 2415 2572 L 2421 2566 L 2421 2565 L 2426 2560 L 2426 2559 L 2429 2556 L 2429 2555 L 2432 2552 L 2432 2551 L 2435 2548 L 2435 2547 L 2437 2545 L 2437 2544 L 2440 2541 L 2440 2540 L 2442 2538 L 2442 2537 L 2443 2536 L 2443 2535 L 2445 2533 L 2445 2532 L 2447 2530 L 2447 2529 L 2448 2528 L 2448 2527 L 2450 2525 L 2450 2524 L 2451 2523 L 2451 2522 L 2453 2520 L 2453 2519 L 2454 2518 L 2454 2517 L 2455 2516 L 2455 2515 L 2456 2514 L 2456 2513 L 2457 2512 L 2457 2511 L 2459 2509 L 2459 2508 L 2460 2507 L 2460 2506 L 2461 2505 L 2461 2504 L 2462 2503 L 2462 2502 L 2463 2501 L 2463 2499 L 2464 2498 L 2464 2497 L 2465 2496 L 2465 2495 L 2466 2494 L 2466 2493 L 2467 2492 L 2467 2491 L 2468 2490 L 2468 2489 L 2469 2488 L 2469 2486 L 2470 2485 L 2470 2484 L 2471 2483 L 2471 2481 L 2472 2480 L 2472 2479 L 2473 2478 L 2473 2477 L 2474 2476 L 2474 2474 L 2475 2473 L 2475 2471 L 2476 2470 L 2476 2469 L 2477 2468 L 2477 2466 L 2478 2465 L 2478 2463 L 2479 2462 L 2479 2460 L 2480 2459 L 2480 2457 L 2481 2456 L 2481 2454 L 2482 2453 L 2482 2451 L 2483 2450 L 2483 2447 L 2484 2446 L 2484 2444 L 2485 2443 L 2485 2440 L 2486 2439 L 2486 2437 L 2487 2436 L 2487 2433 L 2488 2432 L 2488 2428 L 2489 2427 L 2489 2424 L 2490 2423 L 2490 2420 L 2491 2419 L 2491 2415 L 2492 2414 L 2492 2409 L 2493 2408 L 2493 2404 L 2494 2403 L 2494 2398 L 2495 2397 L 2495 2391 L 2496 2390 L 2496 2383 L 2497 2382 L 2497 2374 L 2498 2373 L 2498 2362 L 2499 2361 L 2499 2341 L 2500 2340 L 2500 2311 L 2499 2310 L 2499 2291 L 2498 2290 L 2498 2279 L 2497 2278 L 2497 2270 L 2496 2269 L 2496 2262 L 2495 2261 L 2495 2255 L 2494 2254 L 2494 2249 L 2493 2248 L 2493 2243 L 2492 2242 L 2492 2238 L 2491 2237 L 2491 2233 L 2490 2232 L 2490 2228 L 2489 2227 L 2489 2224 L 2488 2223 L 2488 2220 L 2487 2219 L 2487 2216 L 2486 2215 L 2486 2212 L 2485 2211 L 2485 2208 L 2484 2207 L 2484 2205 L 2483 2204 L 2483 2201 L 2482 2200 L 2482 2198 L 2481 2197 L 2481 2195 L 2480 2194 L 2480 2192 L 2479 2191 L 2479 2189 L 2478 2188 L 2478 2186 L 2477 2185 L 2477 2183 L 2476 2182 L 2476 2181 L 2475 2180 L 2475 2178 L 2474 2177 L 2474 2175 L 2473 2174 L 2473 2173 L 2472 2172 L 2472 2170 L 2471 2169 L 2471 2168 L 2470 2167 L 2470 2166 L 2469 2165 L 2469 2163 L 2468 2162 L 2468 2161 L 2467 2160 L 2467 2159 L 2466 2158 L 2466 2156 L 2465 2155 L 2465 2154 L 2464 2153 L 2464 2152 L 2463 2151 L 2463 2150 L 2462 2149 L 2462 2148 L 2461 2147 L 2461 2146 L 2460 2145 L 2460 2144 L 2459 2143 L 2459 2142 L 2458 2141 L 2458 2140 L 2457 2139 L 2457 2138 L 2456 2137 L 2456 2136 L 2454 2134 L 2454 2133 L 2453 2132 L 2453 2131 L 2452 2130 L 2452 2129 L 2451 2128 L 2451 2127 L 2449 2125 L 2449 2124 L 2448 2123 L 2448 2122 L 2446 2120 L 2446 2119 L 2444 2117 L 2444 2116 L 2443 2115 L 2443 2114 L 2441 2112 L 2441 2111 L 2439 2109 L 2439 2108 L 2436 2105 L 2436 2104 L 2434 2102 L 2434 2101 L 2431 2098 L 2431 2097 L 2428 2094 L 2428 2093 L 2424 2089 L 2424 2088 L 2420 2084 L 2420 2083 L 2413 2076 L 2413 2075 L 2394 2056 L 2393 2056 L 2386 2049 L 2385 2049 L 2380 2044 L 2379 2044 L 2376 2041 L 2375 2041 L 2371 2037 L 2370 2037 L 2368 2035 L 2367 2035 L 2364 2032 L 2363 2032 L 2361 2030 L 2360 2030 L 2358 2028 L 2357 2028 L 2355 2026 L 2354 2026 L 2352 2024 L 2351 2024 L 2350 2023 L 2349 2023 L 2347 2021 L 2346 2021 L 2345 2020 L 2344 2020 L 2342 2018 L 2341 2018 L 2340 2017 L 2339 2017 L 2337 2015 L 2336 2015 L 2335 2014 L 2334 2014 L 2333 2013 L 2332 2013 L 2331 2012 L 2330 2012 L 2329 2011 L 2328 2011 L 2327 2010 L 2326 2010 L 2325 2009 L 2324 2009 L 2323 2008 L 2322 2008 L 2321 2007 L 2320 2007 L 2319 2006 L 2318 2006 L 2317 2005 L 2316 2005 L 2315 2004 L 2314 2004 L 2313 2003 L 2312 2003 L 2311 2002 L 2310 2002 L 2309 2001 L 2307 2001 L 2306 2000 L 2305 2000 L 2304 1999 L 2303 1999 L 2302 1998 L 2300 1998 L 2299 1997 L 2298 1997 L 2297 1996 L 2295 1996 L 2294 1995 L 2293 1995 L 2292 1994 L 2290 1994 L 2289 1993 L 2287 1993 L 2286 1992 L 2285 1992 L 2284 1991 L 2282 1991 L 2281 1990 L 2279 1990 L 2278 1989 L 2276 1989 L 2275 1988 L 2273 1988 L 2272 1987 L 2269 1987 L 2268 1986 L 2266 1986 L 2265 1985 L 2262 1985 L 2261 1984 L 2259 1984 L 2258 1983 L 2255 1983 L 2254 1982 L 2251 1982 L 2250 1981 L 2247 1981 L 2246 1980 L 2242 1980 L 2241 1979 L 2237 1979 L 2236 1978 L 2232 1978 L 2231 1977 L 2227 1977 L 2226 1976 L 2221 1976 L 2220 1975 L 2214 1975 L 2213 1974 L 2207 1974 L 2206 1973 L 2198 1973 L 2197 1972 L 2186 1972 L 2185 1971 L 2167 1971 L 2166 1970 Z M 2145 2109 L 2146 2108 L 2156 2108 L 2157 2109 L 2171 2109 L 2172 2110 L 2179 2110 L 2180 2111 L 2185 2111 L 2186 2112 L 2190 2112 L 2191 2113 L 2194 2113 L 2195 2114 L 2198 2114 L 2199 2115 L 2202 2115 L 2203 2116 L 2205 2116 L 2206 2117 L 2208 2117 L 2209 2118 L 2210 2118 L 2211 2119 L 2213 2119 L 2214 2120 L 2215 2120 L 2216 2121 L 2218 2121 L 2219 2122 L 2220 2122 L 2221 2123 L 2222 2123 L 2223 2124 L 2224 2124 L 2225 2125 L 2226 2125 L 2227 2126 L 2228 2126 L 2230 2128 L 2231 2128 L 2232 2129 L 2233 2129 L 2235 2131 L 2236 2131 L 2238 2133 L 2239 2133 L 2242 2136 L 2243 2136 L 2246 2139 L 2247 2139 L 2251 2143 L 2252 2143 L 2269 2160 L 2269 2161 L 2274 2166 L 2274 2167 L 2276 2169 L 2276 2170 L 2279 2173 L 2279 2174 L 2281 2176 L 2281 2177 L 2282 2178 L 2282 2179 L 2284 2181 L 2284 2182 L 2285 2183 L 2285 2184 L 2287 2186 L 2287 2187 L 2288 2188 L 2288 2189 L 2289 2190 L 2289 2191 L 2290 2192 L 2290 2193 L 2291 2194 L 2291 2195 L 2292 2196 L 2292 2197 L 2293 2198 L 2293 2200 L 2294 2201 L 2294 2202 L 2295 2203 L 2295 2204 L 2296 2205 L 2296 2207 L 2297 2208 L 2297 2209 L 2298 2210 L 2298 2212 L 2299 2213 L 2299 2215 L 2300 2216 L 2300 2218 L 2301 2219 L 2301 2221 L 2302 2222 L 2302 2224 L 2303 2225 L 2303 2227 L 2304 2228 L 2304 2231 L 2305 2232 L 2305 2235 L 2306 2236 L 2306 2239 L 2307 2240 L 2307 2243 L 2308 2244 L 2308 2248 L 2309 2249 L 2309 2253 L 2310 2254 L 2310 2259 L 2311 2260 L 2311 2265 L 2312 2266 L 2312 2273 L 2313 2274 L 2313 2281 L 2314 2282 L 2314 2291 L 2315 2292 L 2315 2306 L 2316 2307 L 2316 2344 L 2315 2345 L 2315 2359 L 2314 2360 L 2314 2370 L 2313 2371 L 2313 2378 L 2312 2379 L 2312 2385 L 2311 2386 L 2311 2391 L 2310 2392 L 2310 2397 L 2309 2398 L 2309 2402 L 2308 2403 L 2308 2407 L 2307 2408 L 2307 2411 L 2306 2412 L 2306 2415 L 2305 2416 L 2305 2419 L 2304 2420 L 2304 2423 L 2303 2424 L 2303 2426 L 2302 2427 L 2302 2429 L 2301 2430 L 2301 2432 L 2300 2433 L 2300 2435 L 2299 2436 L 2299 2438 L 2298 2439 L 2298 2440 L 2297 2441 L 2297 2443 L 2296 2444 L 2296 2445 L 2295 2446 L 2295 2448 L 2294 2449 L 2294 2450 L 2293 2451 L 2293 2452 L 2292 2453 L 2292 2455 L 2291 2456 L 2291 2457 L 2290 2458 L 2290 2459 L 2289 2460 L 2289 2461 L 2287 2463 L 2287 2464 L 2286 2465 L 2286 2466 L 2285 2467 L 2285 2468 L 2284 2469 L 2284 2470 L 2282 2472 L 2282 2473 L 2281 2474 L 2281 2475 L 2279 2477 L 2279 2478 L 2277 2480 L 2277 2481 L 2274 2484 L 2274 2485 L 2270 2489 L 2270 2490 L 2250 2510 L 2249 2510 L 2246 2513 L 2245 2513 L 2242 2516 L 2241 2516 L 2239 2518 L 2238 2518 L 2236 2520 L 2235 2520 L 2233 2522 L 2232 2522 L 2231 2523 L 2230 2523 L 2229 2524 L 2228 2524 L 2226 2526 L 2225 2526 L 2224 2527 L 2223 2527 L 2222 2528 L 2220 2528 L 2219 2529 L 2218 2529 L 2217 2530 L 2216 2530 L 2215 2531 L 2213 2531 L 2212 2532 L 2210 2532 L 2209 2533 L 2208 2533 L 2207 2534 L 2204 2534 L 2203 2535 L 2201 2535 L 2200 2536 L 2197 2536 L 2196 2537 L 2193 2537 L 2192 2538 L 2188 2538 L 2187 2539 L 2183 2539 L 2182 2540 L 2175 2540 L 2174 2541 L 2164 2541 L 2163 2542 L 2139 2542 L 2138 2541 L 2127 2541 L 2126 2540 L 2120 2540 L 2119 2539 L 2114 2539 L 2113 2538 L 2110 2538 L 2109 2537 L 2106 2537 L 2105 2536 L 2102 2536 L 2101 2535 L 2099 2535 L 2098 2534 L 2095 2534 L 2094 2533 L 2093 2533 L 2092 2532 L 2090 2532 L 2089 2531 L 2087 2531 L 2086 2530 L 2085 2530 L 2084 2529 L 2083 2529 L 2082 2528 L 2081 2528 L 2080 2527 L 2079 2527 L 2078 2526 L 2077 2526 L 2076 2525 L 2075 2525 L 2074 2524 L 2073 2524 L 2072 2523 L 2071 2523 L 2069 2521 L 2068 2521 L 2066 2519 L 2065 2519 L 2063 2517 L 2062 2517 L 2059 2514 L 2058 2514 L 2055 2511 L 2054 2511 L 2048 2505 L 2047 2505 L 2039 2497 L 2039 2496 L 2032 2489 L 2032 2488 L 2029 2485 L 2029 2484 L 2026 2481 L 2026 2480 L 2024 2478 L 2024 2477 L 2022 2475 L 2022 2474 L 2021 2473 L 2021 2472 L 2019 2470 L 2019 2469 L 2018 2468 L 2018 2467 L 2017 2466 L 2017 2465 L 2015 2463 L 2015 2462 L 2014 2461 L 2014 2460 L 2013 2459 L 2013 2458 L 2012 2457 L 2012 2456 L 2011 2455 L 2011 2453 L 2010 2452 L 2010 2451 L 2009 2450 L 2009 2449 L 2008 2448 L 2008 2447 L 2007 2446 L 2007 2444 L 2006 2443 L 2006 2442 L 2005 2441 L 2005 2439 L 2004 2438 L 2004 2436 L 2003 2435 L 2003 2433 L 2002 2432 L 2002 2430 L 2001 2429 L 2001 2427 L 2000 2426 L 2000 2424 L 1999 2423 L 1999 2420 L 1998 2419 L 1998 2416 L 1997 2415 L 1997 2412 L 1996 2411 L 1996 2408 L 1995 2407 L 1995 2403 L 1994 2402 L 1994 2398 L 1993 2397 L 1993 2392 L 1992 2391 L 1992 2386 L 1991 2385 L 1991 2379 L 1990 2378 L 1990 2371 L 1989 2370 L 1989 2361 L 1988 2360 L 1988 2346 L 1987 2345 L 1987 2307 L 1988 2306 L 1988 2292 L 1989 2291 L 1989 2282 L 1990 2281 L 1990 2273 L 1991 2272 L 1991 2266 L 1992 2265 L 1992 2260 L 1993 2259 L 1993 2254 L 1994 2253 L 1994 2249 L 1995 2248 L 1995 2244 L 1996 2243 L 1996 2240 L 1997 2239 L 1997 2235 L 1998 2234 L 1998 2232 L 1999 2231 L 1999 2228 L 2000 2227 L 2000 2225 L 2001 2224 L 2001 2222 L 2002 2221 L 2002 2218 L 2003 2217 L 2003 2216 L 2004 2215 L 2004 2213 L 2005 2212 L 2005 2210 L 2006 2209 L 2006 2208 L 2007 2207 L 2007 2205 L 2008 2204 L 2008 2203 L 2009 2202 L 2009 2200 L 2010 2199 L 2010 2198 L 2011 2197 L 2011 2196 L 2012 2195 L 2012 2194 L 2013 2193 L 2013 2192 L 2014 2191 L 2014 2190 L 2015 2189 L 2015 2188 L 2016 2187 L 2016 2186 L 2018 2184 L 2018 2183 L 2019 2182 L 2019 2181 L 2021 2179 L 2021 2178 L 2022 2177 L 2022 2176 L 2024 2174 L 2024 2173 L 2026 2171 L 2026 2170 L 2029 2167 L 2029 2166 L 2033 2162 L 2033 2161 L 2053 2141 L 2054 2141 L 2058 2137 L 2059 2137 L 2062 2134 L 2063 2134 L 2065 2132 L 2066 2132 L 2068 2130 L 2069 2130 L 2071 2128 L 2072 2128 L 2073 2127 L 2074 2127 L 2076 2125 L 2077 2125 L 2078 2124 L 2079 2124 L 2080 2123 L 2081 2123 L 2082 2122 L 2083 2122 L 2084 2121 L 2086 2121 L 2087 2120 L 2088 2120 L 2089 2119 L 2091 2119 L 2092 2118 L 2093 2118 L 2094 2117 L 2096 2117 L 2097 2116 L 2099 2116 L 2100 2115 L 2103 2115 L 2104 2114 L 2106 2114 L 2107 2113 L 2111 2113 L 2112 2112 L 2116 2112 L 2117 2111 L 2121 2111 L 2122 2110 L 2129 2110 L 2130 2109 Z" />
    <path d="M 545 1538 L 545 2677 L 733 2677 L 733 2272 L 734 2271 L 734 2253 L 735 2252 L 735 2243 L 736 2242 L 736 2236 L 737 2235 L 737 2231 L 738 2230 L 738 2226 L 739 2225 L 739 2221 L 740 2220 L 740 2218 L 741 2217 L 741 2214 L 742 2213 L 742 2211 L 743 2210 L 743 2208 L 744 2207 L 744 2205 L 745 2204 L 745 2203 L 746 2202 L 746 2200 L 747 2199 L 747 2198 L 748 2197 L 748 2196 L 749 2195 L 749 2193 L 750 2192 L 750 2191 L 751 2190 L 751 2189 L 753 2187 L 753 2186 L 754 2185 L 754 2184 L 755 2183 L 755 2182 L 756 2181 L 756 2180 L 758 2178 L 758 2177 L 760 2175 L 760 2174 L 762 2172 L 762 2171 L 764 2169 L 764 2168 L 767 2165 L 767 2164 L 775 2156 L 775 2155 L 777 2153 L 778 2153 L 785 2146 L 786 2146 L 789 2143 L 790 2143 L 793 2140 L 794 2140 L 796 2138 L 797 2138 L 799 2136 L 800 2136 L 801 2135 L 802 2135 L 803 2134 L 804 2134 L 806 2132 L 807 2132 L 808 2131 L 809 2131 L 810 2130 L 812 2130 L 813 2129 L 814 2129 L 815 2128 L 817 2128 L 818 2127 L 819 2127 L 820 2126 L 822 2126 L 823 2125 L 825 2125 L 826 2124 L 829 2124 L 830 2123 L 833 2123 L 834 2122 L 837 2122 L 838 2121 L 842 2121 L 843 2120 L 847 2120 L 848 2119 L 854 2119 L 855 2118 L 878 2118 L 879 2119 L 888 2119 L 889 2120 L 895 2120 L 896 2121 L 900 2121 L 901 2122 L 904 2122 L 905 2123 L 908 2123 L 909 2124 L 911 2124 L 912 2125 L 915 2125 L 916 2126 L 917 2126 L 918 2127 L 920 2127 L 921 2128 L 922 2128 L 923 2129 L 924 2129 L 925 2130 L 926 2130 L 927 2131 L 928 2131 L 930 2133 L 931 2133 L 933 2135 L 934 2135 L 936 2137 L 937 2137 L 942 2142 L 943 2142 L 950 2149 L 950 2150 L 955 2155 L 955 2156 L 957 2158 L 957 2159 L 959 2161 L 959 2162 L 960 2163 L 960 2164 L 962 2166 L 962 2167 L 963 2168 L 963 2170 L 964 2171 L 964 2172 L 965 2173 L 965 2174 L 966 2175 L 966 2177 L 967 2178 L 967 2180 L 968 2181 L 968 2183 L 969 2184 L 969 2186 L 970 2187 L 970 2189 L 971 2190 L 971 2193 L 972 2194 L 972 2197 L 973 2198 L 973 2201 L 974 2202 L 974 2206 L 975 2207 L 975 2213 L 976 2214 L 976 2222 L 977 2223 L 977 2241 L 978 2242 L 978 2677 L 1167 2677 L 1167 2271 L 1168 2270 L 1168 2257 L 1169 2256 L 1169 2247 L 1170 2246 L 1170 2238 L 1171 2237 L 1171 2231 L 1172 2230 L 1172 2225 L 1173 2224 L 1173 2220 L 1174 2219 L 1174 2216 L 1175 2215 L 1175 2212 L 1176 2211 L 1176 2208 L 1177 2207 L 1177 2205 L 1178 2204 L 1178 2202 L 1179 2201 L 1179 2199 L 1180 2198 L 1180 2196 L 1181 2195 L 1181 2193 L 1182 2192 L 1182 2191 L 1183 2190 L 1183 2188 L 1184 2187 L 1184 2186 L 1185 2185 L 1185 2184 L 1186 2183 L 1186 2182 L 1187 2181 L 1187 2180 L 1188 2179 L 1188 2178 L 1189 2177 L 1189 2176 L 1190 2175 L 1190 2174 L 1192 2172 L 1192 2171 L 1194 2169 L 1194 2168 L 1196 2166 L 1196 2165 L 1198 2163 L 1198 2162 L 1202 2158 L 1202 2157 L 1215 2144 L 1216 2144 L 1220 2140 L 1221 2140 L 1224 2137 L 1225 2137 L 1227 2135 L 1228 2135 L 1230 2133 L 1231 2133 L 1232 2132 L 1233 2132 L 1234 2131 L 1235 2131 L 1237 2129 L 1239 2129 L 1240 2128 L 1241 2128 L 1242 2127 L 1243 2127 L 1244 2126 L 1246 2126 L 1247 2125 L 1249 2125 L 1250 2124 L 1252 2124 L 1253 2123 L 1256 2123 L 1257 2122 L 1260 2122 L 1261 2121 L 1265 2121 L 1266 2120 L 1271 2120 L 1272 2119 L 1280 2119 L 1281 2118 L 1309 2118 L 1310 2119 L 1319 2119 L 1320 2120 L 1325 2120 L 1326 2121 L 1330 2121 L 1331 2122 L 1335 2122 L 1336 2123 L 1338 2123 L 1339 2124 L 1342 2124 L 1343 2125 L 1345 2125 L 1346 2126 L 1347 2126 L 1348 2127 L 1350 2127 L 1351 2128 L 1352 2128 L 1353 2129 L 1354 2129 L 1355 2130 L 1356 2130 L 1357 2131 L 1358 2131 L 1360 2133 L 1361 2133 L 1362 2134 L 1363 2134 L 1365 2136 L 1366 2136 L 1369 2139 L 1370 2139 L 1377 2146 L 1378 2146 L 1380 2148 L 1380 2149 L 1386 2155 L 1386 2156 L 1389 2159 L 1389 2160 L 1391 2162 L 1391 2163 L 1393 2165 L 1393 2166 L 1394 2167 L 1394 2168 L 1395 2169 L 1395 2170 L 1396 2171 L 1396 2172 L 1397 2173 L 1397 2174 L 1398 2175 L 1398 2177 L 1399 2178 L 1399 2179 L 1400 2180 L 1400 2182 L 1401 2183 L 1401 2184 L 1402 2185 L 1402 2187 L 1403 2188 L 1403 2191 L 1404 2192 L 1404 2194 L 1405 2195 L 1405 2198 L 1406 2199 L 1406 2203 L 1407 2204 L 1407 2209 L 1408 2210 L 1408 2216 L 1409 2217 L 1409 2226 L 1410 2227 L 1410 2241 L 1411 2242 L 1411 2264 L 1412 2265 L 1412 2677 L 1600 2677 L 1600 2190 L 1599 2189 L 1599 2177 L 1598 2176 L 1598 2168 L 1597 2167 L 1597 2160 L 1596 2159 L 1596 2154 L 1595 2153 L 1595 2148 L 1594 2147 L 1594 2143 L 1593 2142 L 1593 2138 L 1592 2137 L 1592 2134 L 1591 2133 L 1591 2130 L 1590 2129 L 1590 2126 L 1589 2125 L 1589 2123 L 1588 2122 L 1588 2119 L 1587 2118 L 1587 2116 L 1586 2115 L 1586 2113 L 1585 2112 L 1585 2110 L 1584 2109 L 1584 2107 L 1583 2106 L 1583 2105 L 1582 2104 L 1582 2102 L 1581 2101 L 1581 2100 L 1580 2099 L 1580 2097 L 1579 2096 L 1579 2095 L 1578 2094 L 1578 2093 L 1577 2092 L 1577 2090 L 1576 2089 L 1576 2088 L 1575 2087 L 1575 2086 L 1574 2085 L 1574 2084 L 1573 2083 L 1573 2082 L 1572 2081 L 1572 2080 L 1571 2079 L 1571 2078 L 1570 2077 L 1570 2076 L 1568 2074 L 1568 2073 L 1567 2072 L 1567 2071 L 1566 2070 L 1566 2069 L 1564 2067 L 1564 2066 L 1562 2064 L 1562 2063 L 1560 2061 L 1560 2060 L 1558 2058 L 1558 2057 L 1556 2055 L 1556 2054 L 1553 2051 L 1553 2050 L 1550 2047 L 1550 2046 L 1544 2040 L 1544 2039 L 1532 2027 L 1531 2027 L 1525 2021 L 1524 2021 L 1521 2018 L 1520 2018 L 1517 2015 L 1516 2015 L 1513 2012 L 1512 2012 L 1510 2010 L 1509 2010 L 1507 2008 L 1506 2008 L 1505 2007 L 1504 2007 L 1502 2005 L 1501 2005 L 1500 2004 L 1499 2004 L 1498 2003 L 1497 2003 L 1495 2001 L 1494 2001 L 1493 2000 L 1492 2000 L 1491 1999 L 1490 1999 L 1489 1998 L 1488 1998 L 1487 1997 L 1486 1997 L 1485 1996 L 1484 1996 L 1483 1995 L 1482 1995 L 1481 1994 L 1479 1994 L 1478 1993 L 1477 1993 L 1476 1992 L 1475 1992 L 1474 1991 L 1472 1991 L 1471 1990 L 1470 1990 L 1469 1989 L 1467 1989 L 1466 1988 L 1464 1988 L 1463 1987 L 1461 1987 L 1460 1986 L 1458 1986 L 1457 1985 L 1455 1985 L 1454 1984 L 1452 1984 L 1451 1983 L 1448 1983 L 1447 1982 L 1444 1982 L 1443 1981 L 1441 1981 L 1440 1980 L 1436 1980 L 1435 1979 L 1432 1979 L 1431 1978 L 1427 1978 L 1426 1977 L 1422 1977 L 1421 1976 L 1417 1976 L 1416 1975 L 1411 1975 L 1410 1974 L 1404 1974 L 1403 1973 L 1396 1973 L 1395 1972 L 1386 1972 L 1385 1971 L 1372 1971 L 1371 1970 L 1330 1970 L 1329 1971 L 1318 1971 L 1317 1972 L 1310 1972 L 1309 1973 L 1304 1973 L 1303 1974 L 1298 1974 L 1297 1975 L 1293 1975 L 1292 1976 L 1289 1976 L 1288 1977 L 1285 1977 L 1284 1978 L 1281 1978 L 1280 1979 L 1278 1979 L 1277 1980 L 1274 1980 L 1273 1981 L 1271 1981 L 1270 1982 L 1268 1982 L 1267 1983 L 1265 1983 L 1264 1984 L 1263 1984 L 1262 1985 L 1260 1985 L 1259 1986 L 1258 1986 L 1257 1987 L 1255 1987 L 1254 1988 L 1253 1988 L 1252 1989 L 1251 1989 L 1250 1990 L 1249 1990 L 1248 1991 L 1247 1991 L 1246 1992 L 1244 1992 L 1242 1994 L 1241 1994 L 1240 1995 L 1239 1995 L 1238 1996 L 1237 1996 L 1236 1997 L 1235 1997 L 1234 1998 L 1233 1998 L 1231 2000 L 1230 2000 L 1229 2001 L 1228 2001 L 1226 2003 L 1225 2003 L 1223 2005 L 1222 2005 L 1220 2007 L 1219 2007 L 1217 2009 L 1216 2009 L 1214 2011 L 1213 2011 L 1211 2013 L 1210 2013 L 1207 2016 L 1206 2016 L 1203 2019 L 1202 2019 L 1198 2023 L 1197 2023 L 1195 2025 L 1193 2025 L 1192 2024 L 1192 1538 L 1004 1538 L 1004 1793 L 1003 1794 L 1003 1813 L 1002 1814 L 1002 1825 L 1001 1826 L 1001 1834 L 1000 1835 L 1000 1842 L 999 1843 L 999 1848 L 998 1849 L 998 1854 L 997 1855 L 997 1859 L 996 1860 L 996 1864 L 995 1865 L 995 1868 L 994 1869 L 994 1872 L 993 1873 L 993 1876 L 992 1877 L 992 1880 L 991 1881 L 991 1883 L 990 1884 L 990 1886 L 989 1887 L 989 1889 L 988 1890 L 988 1892 L 987 1893 L 987 1894 L 986 1895 L 986 1897 L 985 1898 L 985 1899 L 984 1900 L 984 1902 L 983 1903 L 983 1904 L 982 1905 L 982 1906 L 981 1907 L 981 1908 L 980 1909 L 980 1910 L 979 1911 L 979 1912 L 978 1913 L 978 1914 L 977 1915 L 977 1916 L 975 1918 L 975 1919 L 974 1920 L 974 1921 L 972 1923 L 972 1924 L 969 1927 L 969 1928 L 965 1932 L 965 1933 L 953 1945 L 952 1945 L 948 1949 L 947 1949 L 944 1952 L 943 1952 L 941 1954 L 940 1954 L 939 1955 L 938 1955 L 936 1957 L 935 1957 L 934 1958 L 933 1958 L 932 1959 L 931 1959 L 930 1960 L 929 1960 L 928 1961 L 927 1961 L 926 1962 L 924 1962 L 923 1963 L 922 1963 L 921 1964 L 919 1964 L 918 1965 L 916 1965 L 915 1966 L 913 1966 L 912 1967 L 910 1967 L 909 1968 L 907 1968 L 906 1969 L 903 1969 L 902 1970 L 898 1970 L 897 1971 L 893 1971 L 892 1972 L 887 1972 L 886 1973 L 879 1973 L 878 1974 L 864 1974 L 863 1975 L 850 1975 L 849 1974 L 836 1974 L 835 1973 L 828 1973 L 827 1972 L 823 1972 L 822 1971 L 818 1971 L 817 1970 L 814 1970 L 813 1969 L 811 1969 L 810 1968 L 808 1968 L 807 1967 L 805 1967 L 804 1966 L 802 1966 L 801 1965 L 800 1965 L 799 1964 L 797 1964 L 796 1963 L 795 1963 L 794 1962 L 793 1962 L 792 1961 L 791 1961 L 789 1959 L 788 1959 L 787 1958 L 786 1958 L 784 1956 L 783 1956 L 780 1953 L 779 1953 L 765 1939 L 765 1938 L 762 1935 L 762 1934 L 760 1932 L 760 1931 L 759 1930 L 759 1929 L 757 1927 L 757 1926 L 756 1925 L 756 1924 L 755 1923 L 755 1922 L 754 1921 L 754 1920 L 753 1919 L 753 1918 L 752 1917 L 752 1916 L 751 1915 L 751 1913 L 750 1912 L 750 1911 L 749 1910 L 749 1908 L 748 1907 L 748 1906 L 747 1905 L 747 1903 L 746 1902 L 746 1900 L 745 1899 L 745 1896 L 744 1895 L 744 1893 L 743 1892 L 743 1889 L 742 1888 L 742 1885 L 741 1884 L 741 1881 L 740 1880 L 740 1876 L 739 1875 L 739 1871 L 738 1870 L 738 1865 L 737 1864 L 737 1858 L 736 1857 L 736 1849 L 735 1848 L 735 1837 L 734 1836 L 734 1816 L 733 1815 L 733 1538 Z" />
    <path d="M 546 500 L 546 1452 L 734 1452 L 734 1073 L 735 1072 L 735 1053 L 736 1052 L 736 1042 L 737 1041 L 737 1032 L 738 1031 L 738 1025 L 739 1024 L 739 1019 L 740 1018 L 740 1013 L 741 1012 L 741 1008 L 742 1007 L 742 1003 L 743 1002 L 743 999 L 744 998 L 744 995 L 745 994 L 745 991 L 746 990 L 746 987 L 747 986 L 747 984 L 748 983 L 748 981 L 749 980 L 749 978 L 750 977 L 750 975 L 751 974 L 751 973 L 752 972 L 752 970 L 753 969 L 753 968 L 754 967 L 754 965 L 755 964 L 755 963 L 756 962 L 756 961 L 757 960 L 757 959 L 758 958 L 758 957 L 759 956 L 759 955 L 760 954 L 760 953 L 761 952 L 761 951 L 763 949 L 763 948 L 764 947 L 764 946 L 766 944 L 766 943 L 769 940 L 769 939 L 773 935 L 773 934 L 785 922 L 786 922 L 790 918 L 791 918 L 793 916 L 794 916 L 796 914 L 797 914 L 799 912 L 800 912 L 801 911 L 802 911 L 804 909 L 805 909 L 806 908 L 807 908 L 808 907 L 809 907 L 810 906 L 812 906 L 813 905 L 814 905 L 815 904 L 816 904 L 817 903 L 819 903 L 820 902 L 822 902 L 823 901 L 825 901 L 826 900 L 828 900 L 829 899 L 832 899 L 833 898 L 836 898 L 837 897 L 840 897 L 841 896 L 845 896 L 846 895 L 852 895 L 853 894 L 860 894 L 861 893 L 880 893 L 881 892 L 883 892 L 884 893 L 901 893 L 902 894 L 909 894 L 910 895 L 915 895 L 916 896 L 919 896 L 920 897 L 923 897 L 924 898 L 927 898 L 928 899 L 930 899 L 931 900 L 933 900 L 934 901 L 935 901 L 936 902 L 938 902 L 939 903 L 940 903 L 941 904 L 942 904 L 943 905 L 944 905 L 945 906 L 946 906 L 947 907 L 948 907 L 949 908 L 950 908 L 952 910 L 953 910 L 955 912 L 956 912 L 959 915 L 960 915 L 972 927 L 972 928 L 975 931 L 975 932 L 977 934 L 977 935 L 979 937 L 979 938 L 980 939 L 980 940 L 982 942 L 982 943 L 983 944 L 983 945 L 984 946 L 984 947 L 985 948 L 985 949 L 986 950 L 986 951 L 987 952 L 987 954 L 988 955 L 988 956 L 989 957 L 989 959 L 990 960 L 990 962 L 991 963 L 991 965 L 992 966 L 992 968 L 993 969 L 993 971 L 994 972 L 994 974 L 995 975 L 995 978 L 996 979 L 996 982 L 997 983 L 997 986 L 998 987 L 998 991 L 999 992 L 999 997 L 1000 998 L 1000 1003 L 1001 1004 L 1001 1010 L 1002 1011 L 1002 1019 L 1003 1020 L 1003 1030 L 1004 1031 L 1004 1054 L 1005 1055 L 1005 1452 L 1193 1452 L 1193 1001 L 1192 1000 L 1192 983 L 1191 982 L 1191 970 L 1190 969 L 1190 960 L 1189 959 L 1189 952 L 1188 951 L 1188 944 L 1187 943 L 1187 938 L 1186 937 L 1186 931 L 1185 930 L 1185 926 L 1184 925 L 1184 920 L 1183 919 L 1183 915 L 1182 914 L 1182 911 L 1181 910 L 1181 906 L 1180 905 L 1180 902 L 1179 901 L 1179 898 L 1178 897 L 1178 895 L 1177 894 L 1177 891 L 1176 890 L 1176 888 L 1175 887 L 1175 885 L 1174 884 L 1174 882 L 1173 881 L 1173 879 L 1172 878 L 1172 876 L 1171 875 L 1171 873 L 1170 872 L 1170 871 L 1169 870 L 1169 868 L 1168 867 L 1168 866 L 1167 865 L 1167 864 L 1166 863 L 1166 861 L 1165 860 L 1165 859 L 1164 858 L 1164 857 L 1163 856 L 1163 855 L 1162 854 L 1162 853 L 1161 852 L 1161 851 L 1160 850 L 1160 849 L 1159 848 L 1159 847 L 1158 846 L 1158 845 L 1156 843 L 1156 842 L 1155 841 L 1155 840 L 1153 838 L 1153 837 L 1152 836 L 1152 835 L 1150 833 L 1150 832 L 1148 830 L 1148 829 L 1145 826 L 1145 825 L 1143 823 L 1143 822 L 1139 818 L 1139 817 L 1132 810 L 1132 809 L 1125 802 L 1124 802 L 1117 795 L 1116 795 L 1112 791 L 1111 791 L 1108 788 L 1107 788 L 1105 786 L 1104 786 L 1102 784 L 1101 784 L 1099 782 L 1098 782 L 1096 780 L 1095 780 L 1094 779 L 1093 779 L 1091 777 L 1090 777 L 1089 776 L 1088 776 L 1087 775 L 1086 775 L 1085 774 L 1084 774 L 1082 772 L 1081 772 L 1080 771 L 1079 771 L 1078 770 L 1077 770 L 1076 769 L 1074 769 L 1073 768 L 1072 768 L 1071 767 L 1070 767 L 1069 766 L 1068 766 L 1067 765 L 1065 765 L 1064 764 L 1063 764 L 1062 763 L 1060 763 L 1059 762 L 1058 762 L 1057 761 L 1055 761 L 1054 760 L 1052 760 L 1051 759 L 1049 759 L 1048 758 L 1046 758 L 1045 757 L 1042 757 L 1041 756 L 1039 756 L 1038 755 L 1035 755 L 1034 754 L 1031 754 L 1030 753 L 1027 753 L 1026 752 L 1022 752 L 1021 751 L 1016 751 L 1015 750 L 1011 750 L 1010 749 L 1004 749 L 1003 748 L 997 748 L 996 747 L 987 747 L 986 746 L 975 746 L 974 745 L 951 745 L 950 744 L 935 744 L 934 745 L 920 745 L 919 746 L 911 746 L 910 747 L 905 747 L 904 748 L 899 748 L 898 749 L 894 749 L 893 750 L 890 750 L 889 751 L 886 751 L 885 752 L 882 752 L 881 753 L 878 753 L 877 754 L 875 754 L 874 755 L 872 755 L 871 756 L 869 756 L 868 757 L 866 757 L 865 758 L 863 758 L 862 759 L 860 759 L 859 760 L 857 760 L 856 761 L 855 761 L 854 762 L 852 762 L 851 763 L 850 763 L 849 764 L 848 764 L 847 765 L 845 765 L 844 766 L 843 766 L 842 767 L 841 767 L 840 768 L 838 768 L 837 769 L 836 769 L 835 770 L 834 770 L 833 771 L 832 771 L 831 772 L 830 772 L 829 773 L 828 773 L 827 774 L 826 774 L 825 775 L 824 775 L 823 776 L 822 776 L 820 778 L 819 778 L 818 779 L 817 779 L 815 781 L 814 781 L 813 782 L 812 782 L 810 784 L 809 784 L 807 786 L 806 786 L 804 788 L 803 788 L 800 791 L 799 791 L 796 794 L 795 794 L 791 798 L 790 798 L 784 804 L 783 804 L 769 818 L 769 819 L 762 826 L 762 827 L 758 831 L 758 832 L 755 835 L 755 836 L 752 839 L 752 840 L 750 842 L 750 843 L 748 845 L 748 846 L 746 848 L 746 849 L 744 851 L 744 852 L 742 854 L 742 855 L 740 857 L 740 858 L 739 859 L 735 859 L 734 858 L 734 500 Z" />
    <path d="M 80 80 L 80 3098 L 2964 3098 L 2964 80 Z M 270 272 L 271 271 L 2773 271 L 2774 272 L 2774 2906 L 2773 2907 L 271 2907 L 270 2906 Z" />
  </g>
</svg>
